/* XPM */
static char *bitcoin32[] = {
/* columns rows colors chars-per-pixel */
"32 32 235 2",
"   c gray100",
".  c #F8E39E",
"X  c #CAB989",
"o  c #AE9D69",
"O  c #9A9060",
"+  c #A59878",
"@  c #C8B795",
"#  c #E9DEBA",
"$  c #F3DD99",
"%  c #A29050",
"&  c #534C33",
"*  c #25292C",
"=  c #4F4C3B",
"-  c #7C7049",
";  c #333432",
":  c #2B2E31",
">  c #464743",
",  c #938A70",
"<  c #E5DBC1",
"1  c #968344",
"2  c #2D302C",
"3  c #30302F",
"4  c #99854C",
"5  c #98865C",
"6  c #D3BA6D",
"7  c #8A7A51",
"8  c #555041",
"9  c gray23",
"0  c #817A67",
"q  c #DDC36C",
"w  c #48422B",
"e  c #1F2429",
"r  c #21262A",
"t  c #3B3A2D",
"y  c #595138",
"u  c #2A2A2D",
"i  c #645B40",
"p  c #524632",
"a  c #524D41",
"s  c #44413C",
"d  c #33373B",
"f  c #AF9D82",
"g  c #C3AA54",
"h  c #8C783B",
"j  c #C29B48",
"k  c #DDB354",
"l  c #E3C36C",
"z  c #F0D387",
"x  c #F4DC91",
"c  c #BBAB7A",
"v  c #7A725A",
"b  c #413D3B",
"n  c #8C765B",
"m  c #C8AB51",
"M  c #987826",
"N  c #B59C4F",
"B  c #EFC64B",
"V  c #F9D455",
"C  c #FAD866",
"Z  c #FADB74",
"A  c #FBDF82",
"S  c #FBE392",
"D  c #F1D88A",
"F  c #DDC379",
"G  c #60512F",
"H  c #735935",
"J  c #836D4A",
"K  c #846D2B",
"L  c #735E2A",
"P  c #817652",
"I  c #F0C84B",
"U  c #F8CE3C",
"Y  c #F9D14A",
"T  c #FAE384",
"R  c #E7CC7D",
"E  c #E1C676",
"W  c #B9A257",
"Q  c #6A5D42",
"!  c #846131",
"~  c #6F5429",
"^  c #675638",
"/  c #957B52",
"(  c #655A2F",
")  c #8B6F24",
"_  c #9F9051",
"`  c #FAD65A",
"'  c #EDD378",
"]  c #F4DB83",
"[  c #CDB054",
"{  c #815F32",
"}  c #5E5548",
"|  c #A89146",
" . c #826D32",
".. c #7B6429",
"X. c #937B45",
"o. c #FADC6B",
"O. c #898163",
"+. c #8E835B",
"@. c #E7C563",
"#. c #C2A547",
"$. c #84745A",
"%. c #A99B73",
"&. c #73644A",
"*. c #9A833C",
"=. c #F1D473",
"-. c #F1CD51",
";. c #AB9C79",
":. c #C3AE90",
">. c #B49B55",
",. c #9A8444",
"<. c #776637",
"1. c #857233",
"2. c #E5CE89",
"3. c #EAC658",
"4. c #E2BA42",
"5. c #BFB388",
"6. c #867648",
"7. c #96844E",
"8. c #EDD489",
"9. c #8E7331",
"0. c #B0A37B",
"q. c #FAEBA2",
"w. c #736A4B",
"e. c #908150",
"r. c #A08B4B",
"t. c #87783E",
"y. c #A58A35",
"u. c #AB9F67",
"i. c #716B5C",
"p. c #7E7451",
"a. c #CDAE4C",
"s. c #B69434",
"d. c #A4966B",
"f. c #958863",
"g. c #E5D08C",
"h. c #AB985D",
"j. c #8A7C5C",
"k. c #2D3033",
"l. c #E4B635",
"z. c #6C634C",
"x. c #A49363",
"c. c #C8B374",
"v. c #9C8B5C",
"b. c #A4935E",
"n. c #F0D166",
"m. c #BAA771",
"M. c #B6A981",
"N. c #5F5841",
"B. c #B7A366",
"V. c #BFAA6C",
"C. c #BAA36C",
"Z. c #B39C62",
"A. c #5D5543",
"S. c #5A512D",
"D. c #3E3832",
"F. c #3B342B",
"G. c #EEC139",
"H. c #9C8756",
"J. c #614D30",
"K. c #AB955C",
"L. c #CCBA83",
"P. c #917C4C",
"I. c #564C3C",
"U. c #B19C5E",
"Y. c #54462C",
"T. c #776444",
"R. c #7A6C4A",
"E. c #A38F52",
"W. c #E5D2A3",
"Q. c #927443",
"!. c #5B492B",
"~. c #A38E5E",
"^. c #5A462A",
"/. c #7B663E",
"(. c #A88F40",
"). c #FCEEC3",
"_. c #72633C",
"`. c #B8995B",
"'. c #654D28",
"]. c #594324",
"[. c #83663C",
"{. c #D7C8A2",
"}. c #886B40",
"|. c #8D6B3A",
" X c #5C4E34",
".X c #DBC584",
"XX c #D4B971",
"oX c #7B5928",
"OX c #B3965C",
"+X c #C1AF79",
"@X c #DFB73F",
"#X c #826528",
"$X c #FAF0CF",
"%X c #825D25",
"&X c #BA9A4C",
"*X c #B0A06C",
"=X c #896D2B",
"-X c #735122",
";X c #D7C59C",
":X c #78572B",
">X c #8A6226",
",X c #BB9B55",
"<X c #8A6431",
"1X c #BB9E42",
"2X c #4C4434",
"3X c #A4842E",
"4X c #806541",
"5X c #987F5C",
"6X c #625A4E",
"7X c #BB974E",
"8X c #BC9C63",
"9X c #D0B68F",
"0X c #887B61",
"qX c #E6C977",
"wX c #3A3632",
"eX c #B89669",
"rX c #28272C",
"tX c #A98951",
"yX c #AD854F",
"uX c #ECD898",
"iX c #736C55",
"pX c #AD8550",
"aX c #524739",
"sX c #453C34",
"dX c #D7BB94",
"fX c #C7A946",
"gX c #E8D5AA",
"hX c #927750",
"jX c #5A4E3C",
"kX c #36383A",
"lX c #464037",
"zX c #E3CDA3",
"xX c #C5AF82",
"cX c #A9956A",
"vX c #EBDAAB",
/* pixels */
"                        . X o O O + @ #                         ",
"                  $ % & * * * = - ; : ; > , <                   ",
"                1 2 * * 3 4 3 5 6 ; 7 8 ; 9 ; 0 <               ",
"            q w e r t y u i 3 p a 9 8 > s i 9 d > f             ",
"          g t e r r * p h j k l z x $ c v 9 9 9 9 b n           ",
"        m w M r r & N B V C Z A S S x D z F 7 9 9 G H J         ",
"      l w M K L P I U Y V C Z T S . x D z R E W Q ! ~ ^ /       ",
"      ( M L ) _ ` U U Y ` C ' ] x $ x D z R E l [ H { / } @     ",
"    |  ...M X.o.V U U Y V C t O.+.d x D z R E l @.#.J $.%.&.    ",
"  . & *.M ^ =.o.` U U Y V C ; O.+.d x D z R E l @.-.X.;., O.:.  ",
"  >.,.<.1.>.T o.` U U Y ` C ; +.+.d x D 2.R E l @.3.4.v ;.5.&.  ",
"  6.7.,.^ ] T o.V U U Y V C ; O.+.9 x D 8.R F l @.-.B 9.0.O.O.  ",
"q.w.e.r.h q.T _ t.1.y.*.t.6.2 O.u.i.x +.p.p.p.w.- - a.s.n d.f.@ ",
"g.w.h.P W q.u.e e e r e e e e O.S S j.: > > : k.> > W l.z.o x.;.",
"c.v.b.w.q q.O 9 n.-.& w.n.=.; O.S m.* M.z R N.z.@.3.-.l.Q B.V.+.",
"C.Z.7 A.' q.O 9 V U S.w.V C D.z.o F., D z R ^ w.@.3.I G.G Z.b.5 ",
"m.H.J A.' q.O 9 V U S.w.V C w F.F.F.2.8.z R Q w.@.3.I G.J.K.r.v.",
"L.P.J I.l q.U.I.V U L 6.V C Y.O x ^ Q 8.z R T.R.@.3.I l.G E.r.x.",
"W.R.J ^ W q.U.y V U ..Q.V C !.~.S 2.^./ z R /.J @.3.I l.I.r.(.0.",
").J Q._.h q.`.G ` U  .X.V C '.~.z 2.c.].Z.R [.6.@.3.I s.^ | s.{.",
"  5 }.|. X] ] E V U 4.3.` C ~ K.K.H x .X.XF XXXX@.3.B ..X.y.9.  ",
"  5.[.! p `.T o.V U U Y V C oXK.OXH +Xm.x.x.x.OX@.3.@Xp s.#XP.  ",
"  $XT.^ %XA.=.o.V U U Y ` C %XOX&X{ 0.*XO +.Z.Z.@.3. . .=X-X;X  ",
"    M.oX:X^ 7 o.V U U Y ` C >X`.,X<Xx D z R E l @.1X2X3X-X4X    ",
"      4X4X5X6Xb.` U U Y V C 7XXXXX8XS z z R E l m p M '.-XW.    ",
"      9Xn 0X;.i.+.I U Y ` C Z A S S x D z R qX`.wX=XoX-XC.      ",
"        eX+ + 0 b 6X&XI ` C Z A S S S z z E R.rXF.%X-XtX        ",
"          yXv b b b 9 I.Q.j k l z $ uXc iXk.u u u F.pX          ",
"            pXaX9 9 a &.9 N.wXsXI.b & wXF.^.u u 3 C.            ",
"              dX[.b 9 9 b N wX1 fXwX .G u 3 u T.gX              ",
"                  dXhXjXkX; k._.h 3 u u lX7 W.                  ",
"                        zXxXcX5 v.%.X vX                        "
};
