/* XPM */
static char *bitcoin16[] = {
/* columns rows colors chars-per-pixel */
"16 16 138 2",
"   c gray100",
".  c #D1C498",
"X  c #928865",
"o  c #746C4D",
"O  c #7C7455",
"+  c #908972",
"@  c #CDC6AF",
"#  c #D5C691",
"$  c #424131",
"%  c #3E3A35",
"&  c #524A39",
"*  c #625E4C",
"=  c #5E5844",
"-  c #46423B",
";  c #4B4940",
":  c #C4BAA7",
">  c #C3B070",
",  c #433E28",
"<  c #2C2F2F",
"1  c #867339",
"2  c #D1AE51",
"3  c #EECC6D",
"4  c #F7E094",
"5  c #E3CE8B",
"6  c #A49160",
"7  c #A38C6E",
"8  c #DBCA91",
"9  c #7D6726",
"0  c #887231",
"q  c #DDBC4F",
"w  c #F9CF43",
"e  c #FAD65F",
"r  c #F1D878",
"t  c #F4DB8E",
"y  c #EACF81",
"u  c #D9BD6D",
"i  c #8B703C",
"p  c #7E613A",
"a  c #B7A286",
"s  c #836C2B",
"d  c #DCC265",
"f  c #F9D148",
"g  c #5F5C49",
"h  c #E3C572",
"j  c #DFBE59",
"k  c #927E58",
"l  c #8F8166",
"z  c #DACC9B",
"x  c #917B45",
"c  c #A49050",
"v  c #FBE078",
"b  c #E9C65E",
"n  c #B59947",
"m  c #AC9B76",
"M  c #C4B59A",
"N  c #BFAA70",
"B  c #978552",
"V  c #CFBC75",
"C  c #998D59",
"Z  c #534E31",
"A  c #605731",
"S  c #534F36",
"D  c #565546",
"F  c #C5B57A",
"G  c #8D835F",
"H  c #655C41",
"J  c #C9A642",
"K  c #918267",
"L  c #B4A067",
"P  c #7F734F",
"I  c #69664F",
"U  c #F5D052",
"Y  c #665A3D",
"T  c #F6D566",
"R  c #595544",
"E  c #AC9967",
"W  c #978C69",
"Q  c #EEC341",
"!  c #8D7A4D",
"~  c #6E6044",
"^  c #726439",
"/  c #5C5139",
"(  c #CAB577",
")  c #756646",
"_  c #817141",
"`  c #9E8B55",
"'  c #C2B184",
"]  c #7B6441",
"[  c #D0BD76",
"{  c #89764A",
"}  c #876F37",
"|  c #826D44",
" . c #EED68A",
".. c #DCC278",
"X. c #DEB53F",
"o. c #BDA16F",
"O. c #DED4B6",
"+. c #87673A",
"@. c #EFC848",
"#. c #8F7442",
"$. c #917645",
"%. c #D2BE80",
"&. c #A6893A",
"*. c #9B8035",
"=. c #D2C298",
"-. c #866D48",
";. c #6F5633",
":. c #9D7B41",
">. c #C0AB6F",
",. c #CBB16A",
"<. c #DDBC57",
"1. c #7D6930",
"2. c #7D5F2C",
"3. c #D6C6AB",
"4. c #8C7656",
"5. c #897E60",
"6. c #E1C26D",
"7. c #E2C77E",
"8. c #786537",
"9. c #7A5A26",
"0. c #CFBA91",
"q. c #C0A67F",
"w. c #78715E",
"e. c #464340",
"r. c #F7DE91",
"t. c #9D8D61",
"y. c #483A29",
"u. c #BBA383",
"i. c #50473D",
"p. c #4E493F",
"a. c #5D5031",
"s. c #3B332D",
"d. c #3D3733",
"f. c #C2B196",
"g. c #7B6D4E",
"h. c #827450",
"j. c #918569",
"k. c #C9BC9C",
/* pixels */
"          . X o O + @           ",
"      # $ % & & * = - ; :       ",
"    > , < 1 2 3 4 5 6 ; - 7     ",
"  8 9 0 q w e r 4 t y u i p a   ",
"  1 s d f w e g g t y h j k l   ",
"z x c v f w e g * t y h b n m M ",
"N B V C Z A S D F G * D H J K m ",
"L P t I U Y T R E W y H b Q ! 6 ",
"E ~ t o f ^ e / o ( y ) b Q _ ` ",
"' ] [ { f } e |  .| .._ b X._ o.",
"O.+.B r f @.e #.$.%.N o.b &.*.=.",
"  -.;.d f w e :.:.%.>.,.<.1.2.  ",
"  3.4.5.q w e 6.7.t y u 8.9.0.  ",
"    q.w.e.x 2 3 r.5 t.% y.o.    ",
"      u.i.p.H & Y a.s.d.f.      ",
"          f.K g.h.j.k.          "
};
