/* XPM */
static char *bitcoin64[] = {
/* columns rows colors chars-per-pixel */
"48 48 236 2",
"   c gray100",
".  c #FCF1B1",
"X  c #F5E2A4",
"o  c #EFD991",
"O  c #D6C47B",
"+  c #D4BB72",
"@  c #C5B27B",
"#  c #DAC382",
"$  c #DCCC95",
"%  c #F2E1AD",
"&  c #F7EBC4",
"*  c #FBE28B",
"=  c #CBB057",
"-  c #8C7A43",
";  c #5A5239",
":  c #373832",
">  c #1E2429",
",  c #20252A",
"<  c #2C2C30",
"1  c #2D3032",
"2  c #524D44",
"3  c #7C7253",
"4  c #B9AA7B",
"5  c #EBD9AC",
"6  c #FCF0AF",
"7  c #DFC15C",
"8  c #736845",
"9  c #BAA25A",
"0  c #4D4A3C",
"q  c #373B3E",
"w  c #6A6353",
"e  c #C7BA91",
"r  c #F4EBD0",
"t  c #796738",
"y  c #24292C",
"u  c #796A49",
"i  c #333334",
"p  c #DABA68",
"a  c #ECD285",
"s  c #8C8156",
"d  c #3B3A3B",
"f  c #363638",
"g  c #575752",
"h  c #B8AB87",
"j  c #FBE077",
"k  c #937E3D",
"l  c #2F312A",
"z  c #3A3A33",
"x  c #99864B",
"c  c #978759",
"v  c #D9BD71",
"b  c #D3BC9A",
"n  c #E5C14E",
"m  c #5B512E",
"M  c #6C603D",
"N  c #463925",
"B  c #423D36",
"V  c #534C3C",
"C  c #50473C",
"Z  c #655A45",
"A  c #44413C",
"S  c #A68C67",
"D  c #D7B443",
"F  c #43402D",
"G  c #594C33",
"H  c #866738",
"J  c #B1863B",
"K  c #CC9C42",
"L  c #D3A74C",
"P  c #E9CE80",
"I  c #F3DA8A",
"U  c #F0DDA0",
"Y  c #C7B688",
"T  c #978A64",
"R  c #55524B",
"E  c #3A3634",
"W  c #383738",
"Q  c #826D51",
"!  c #2F2C27",
"~  c #8D7328",
"^  c #7B6C43",
"/  c #C9A646",
"(  c #FAD967",
")  c #FBE698",
"_  c #C9AF70",
"`  c #736A4B",
"'  c #3C4144",
"]  c #6B5A3A",
"[  c #5D4E3A",
"{  c #7B6443",
"}  c #654B26",
"|  c #D19F1F",
" . c #D3B349",
".. c #F9D14A",
"X. c #F9D559",
"o. c #F9DB76",
"O. c #F4DD93",
"+. c #C1AA67",
"@. c #5B5343",
"#. c #785C35",
"$. c #624E33",
"%. c #F0CA55",
"&. c #68552B",
"*. c #BE9220",
"=. c #79652B",
"-. c #F8CD39",
";. c #E4C878",
":. c #EDD06D",
">. c #956829",
",. c #97631C",
"<. c #4B453D",
"1. c #EDD174",
"2. c #625A34",
"3. c #A88529",
"4. c #E6C567",
"5. c #DFC274",
"6. c #A28948",
"7. c #755728",
"8. c #835C26",
"9. c #A07843",
"0. c #B48E5A",
"q. c #AC9448",
"w. c #584627",
"e. c #EAD89B",
"r. c #645334",
"t. c #B59764",
"y. c #E9C65A",
"u. c #B38929",
"i. c #DDC069",
"p. c #424034",
"a. c #CDB876",
"s. c #836B42",
"d. c #AF8A5A",
"f. c #615D51",
"g. c #CEAD7D",
"h. c #5B564C",
"j. c #8B7634",
"k. c #514933",
"l. c #AD9952",
"z. c #C5B273",
"x. c #EFC84D",
"c. c #A89874",
"v. c #9E9376",
"b. c #A58836",
"n. c #E9CF8E",
"m. c #D0AB33",
"M. c #8C734B",
"N. c #927A35",
"B. c #4B4333",
"V. c #EDC545",
"C. c #7F7864",
"Z. c #62593D",
"A. c #BBA24B",
"S. c #CBA536",
"D. c #D4C494",
"F. c #D0BA85",
"G. c #C5AA58",
"H. c #E8B935",
"J. c #847961",
"K. c #8B8164",
"L. c #83744D",
"P. c #B6A160",
"I. c #FAE6A3",
"U. c #BBA03F",
"Y. c #BC9D35",
"T. c #B3A26C",
"R. c #A99767",
"E. c #AB985D",
"W. c #AC9556",
"Q. c #F5CB43",
"!. c #CAB47B",
"~. c #7C714B",
"^. c #6B634A",
"/. c #28262C",
"(. c #C79E31",
"). c #555045",
"_. c #DFCDA9",
"`. c #DDC97A",
"'. c #DAA92E",
"]. c #BBA86D",
"[. c #867955",
"{. c #E6BC50",
"}. c #E4CC85",
"|. c #AEA588",
" X c #A28C5B",
".X c #8B794C",
"XX c #CEB068",
"oX c #474745",
"OX c #70664A",
"+X c #38332A",
"@X c #EAD399",
"#X c #A18352",
"$X c #A4905A",
"%X c #FBEAB3",
"&X c #AC8B53",
"*X c #8C6E45",
"=X c #523D23",
"-X c #957529",
";X c #D3B979",
":X c #957C47",
">X c #E1BE48",
",X c #E0C586",
"<X c #C29428",
"1X c #ECDDB2",
"2X c #735E42",
"3X c #D8B682",
"4X c #E4D192",
"5X c #DEB942",
"6X c #DBB857",
"7X c #FBEABA",
"8X c #BDA76C",
"9X c #A47B3D",
"0X c #A26E27",
"qX c #76511E",
"wX c #FCF4D7",
"eX c #80571E",
"rX c #946C35",
"tX c #A46A1A",
"yX c #EBD7A9",
"uX c #846728",
"iX c #5C584C",
"pX c #E7D0A7",
"aX c #B49859",
"sX c #2B292D",
"dX c #302E32",
"fX c #8D7242",
"gX c #A6722E",
"hX c #C1965A",
"jX c #DAC17C",
"kX c #B18445",
"lX c #DDC29C",
"zX c #B78E52",
"xX c #B79B41",
"cX c #BAA261",
"vX c #F2DDAC",
"bX c #826C4A",
/* pixels */
"                                      . X o O + @ # $ % &                                       ",
"                                * = - ; : > , < : < < 1 2 3 4 5                                 ",
"                          6 7 - : > , , , 1 : 8 9 0 < 1 1 1 1 q w e r                           ",
"                        7 t > > > y y ; u 1 i p a 8 1 0 s d i i f f g h                         ",
"                    j k l > > y t z y x = 1 < c c 2 1 3 v d 1 u 0 f i q w b                     ",
"                  n m > > > > y M 1 , : 1 l N B V C B d d i i Z A i q f d A S                   ",
"                D F > > > > y y > 1 G H J K L p P I U U Y T R q i q E d d W B Q                 ",
"              D ! ~ > ! > y y : ^ / n ( ( j j * * ) ) * I I I _ ` q q d d ' ] [ {               ",
"            D F } | > > > l `  .....X.X.( j o.* * ) ) O.I o a P a +.@.d d B #.#.$.#.            ",
"          %.F &.~ ~ *.=.: 9 ..-.-...X.X.( j j * * ) ) O.I I a a P ;.:.u V >.>.$.,.<.H           ",
"        1.2.~ =.3.~ &.0 4...-.-.....X.X.( j j j ) ) ) O.I o a P ;.;.5.( 6.V #.7.8.9.<.0.        ",
"        q.w.~ =.=.=.m :.X...-.-.-...X.X.( 1.a I I e.e.) I I a a ;.;.5.5.%.6.r.#.@.t.w [         ",
"      y.: u.&.~ 3.m i.( X...-.-.....X.X.( p.y 4 a.> ' o I I a a 1.5.;.5.4.%.- s.d.f.g.h.s.      ",
"      - j.t 3.*.k.l.j ( X...-.-.-...X.X.( A > h z.> ' ) I a a P P ;.5.4.y.y.x.Z c.4 4 v.h.b     ",
"    y.: b.t =.m M o.j ( X...-.-.....X.X.( p.> @ z.> ' o O.n.a P P ;.5.y.5.y.%.m.2 v.g % g M.    ",
"    q.- u N.b.B.7 * j ( X...-.-.-...X.X.( p.y 4 a.> ' O.I I a a ;.;.5.5.4.y.y.V.H v.Y C.$ 2     ",
"  * Z.M A.q.k t j * j ( X...-.-.-...X.X.( p.> 4 a.> ' O.O.I a P P ;.5.4.4.y.y.x.S.f.D.c.F.@.4   ",
"  4.; G.0 k : / ) * j ( X...-.-.....X.X.( p.> 4 @ > ' O.I n.a a ;.;.5.5.y.y.%.x.H.r.J.K.J.4 L.  ",
"  l.Z.P.G.9 k.1.I.* j = A.U.Y.m.-.U.A.A.G.: > 4 + > ' O.a T.T.R.R.R.E.W.W.l.q. .Q.>.J.n.!.J.Z   ",
"  ~.+.~.~.~.=.) ) * ^.> > > > > F > > > > > , 4 * I O.O.f.> /.> /.> > /.> > /.s V.(.).R.@.a h._.",
") ^.3 E.P.A b.6 ) `.y > > > > > > > y > > > , 4 ) ) ) c > q g h.g ' > ' h.g g R.V.'.B.K.].T ^.Y ",
") V 1.Z v @./ . ) `.> ' 1.:.%.8 > T 1.1.o.d > 4 * ) @ /.1 D.a P ;.u /.K.4.y.%.x.V.H.w._ c ].c 4 ",
"* Z.3 c [.i {.. I.`.> ' X...-.=.y c X.X.( p./.4 * }.E < |.n.a a P L.! s 5.y.%.x.Q.H.&.^. Xs .XR.",
"* V 5..XXX: y.. I.`.> oXX...-.=.> c X.X.( B.! ` s [ ! K.O.I a P ;.L.! K.4.y.y.x.V.H.7.s + P.E.c ",
"I Z u OXM.d y.6 I.`.> oXX...-.=.>  XX.X.( k.+X+X+X+XB @XI I a P P M.+Xc 4.y.y.x.Q.H.7.u .X~.x T ",
") V p #X#Xi {.. I.`.l 2 X...-.j.! $XX.X.( G +XJ.T @.N 3 I I a P P M.+Xc 4.4.%.x.V.H.} Z 4.G.6.T.",
"X ` L.V #XB / 6 I.`.N @.X...-.~ N W.X.X.( $.N !.* }.k.N T.n.a P P .XN T 4.y.y.x.V.H.w.W.u t - 4 ",
"%XOX0.&X*Xd 3.6 I.`.=XM X...-.-XN l.X.X.( r.N !.* ) _ =X=X;Xa a P :XN $X4.y.%.x.Q.'.F 8 = >Xt D.",
"  s s k.9.Z.H ) I.`.w.Z X...-.-Xw.W.X.X.( &.=X!.* ) )  X=X&.,XP ;.:X=XS 4.y.y.x.V.<Xi 7 [ N.t 1X",
"  4 2X#XH ] k.1.) `.w.M X...-.-Xw.l.X.X.( 7.=X;XI 3X;.o s.w.s.;.P x =X X4.y.y.%.V.-X[ - U.Y.M   ",
"  4X{ s.#.*XE / I.* + v X...-.5X6Xy.X.X.( #.w._ + w.2XO.P Y g.}.;._ z.+ 4.y.%.x.H.m k.>X&.u.c   ",
"  7Xw { #.#.[ s.o.* j ( X...-.-.-...X.X.( #.} + + } #.o O.I a P 8X;.5.5.4.y.y.x.(.<  .t -Xm 3X  ",
"    4 9XH 0X$.B p * o.( X...-.-.....X.X.( 8.} ;X+ } H 4 J.R.Q Q c s M.c 4.y.y.V.7.2.b.-Xu.H     ",
"    % V #.B 0XB { o.j ( X...-.-.Q...X.X.( H qX;Xv qXH S T S s ^.s L.5.M.4.y.y.S.l b.j.&.w.$X    ",
"    wXc.0X>.7.eXd P.o.( X...-.-.....X.X.( 8.eX;Xv 7.rXo ,X}.3X5.3X5.5.p 4.y.V.k.t j.0XtX7.yX    ",
"      5 [ 7.$.rX2X<.p ( X...-.-.Q...X.X.( >.eX;Xp eXrXO.O.a a a ;.;.;.4.4.%.t k.uX3.w.w.$X      ",
"        c.7.#.@.t.2 iX1.X...-.-.Q...X.X.( 9XrX3X5.rX#XO.I I a P P 5.5.4.y.:X+X=.>.} 7.7.        ",
"        pXQ 0.S Q F.' iX4...-.-.Q...X.( ( o.o.I * ) O.) I a a a ;.;.5.:.k < uXuXuX,.qX3X        ",
"          g.f.K.C.Y h R 2 +.x.-.Q...X.X.( o.o.* * ) O.O.O.I a P P ;.:.2X< -X=.8.} =X&X          ",
"            aXS |.w D.h.' ' M.6Xx...X.X.( o.j I * ) ) O.I I n.P a +.B < sX>.=X} qX6.            ",
"              9.c.X c.' B ' W <.M./ {.X.( o.j * * ) ) * I O.I z.@.dXsXsX/.N ,.,.fX              ",
"                >.V ' ' B ' d d d d Z.H J K L p ;.o U U Y K.<.dXsXsXsX/./.sX/.-                 ",
"                  gXG B ' d d d L.C f q A E B k.).2 B dXB < < } E sXsX/.sXdXaX                  ",
"                    hX#.A d d W s C f 6.= d i p.- dXdXt m.F sX} +XsX/.sX[ jX                    ",
"                        kX] d d W f i u - i C n ..k < G -X< sXsXsXsXB.P.                        ",
"                          lXzX{ A W f i f dXi xXD k.dX< < < sX< Z.cXvX                          ",
"                                3X&XbX@.B dXdXE dXi < dXC u E.n.                                ",
"                                      5 @X,X;X_ _ O 4XX 7X                                      "
};
